G04 #@! TF.FileFunction,Legend,Top*
%FSLAX46Y46*%
G04 Gerber Fmt 4.6, Leading zero omitted, Abs format (unit mm)*
G04 Created by KiCad (PCBNEW 4.0.7) date Fri Jul 20 16:51:51 2018*
%MOMM*%
%LPD*%
G01*
G04 APERTURE LIST*
%ADD10C,0.100000*%
%ADD11C,0.150000*%
G04 APERTURE END LIST*
D10*
X154600042Y-96911970D02*
G75*
G03X154600042Y-96911970I-30000000J0D01*
G01*
X-6350000Y133350000D02*
G75*
G03X-6350000Y133350000I0J0D01*
G01*
D11*
X91630667Y-131770381D02*
X91297333Y-131294190D01*
X91059238Y-131770381D02*
X91059238Y-130770381D01*
X91440191Y-130770381D01*
X91535429Y-130818000D01*
X91583048Y-130865619D01*
X91630667Y-130960857D01*
X91630667Y-131103714D01*
X91583048Y-131198952D01*
X91535429Y-131246571D01*
X91440191Y-131294190D01*
X91059238Y-131294190D01*
X92059238Y-131246571D02*
X92392572Y-131246571D01*
X92535429Y-131770381D02*
X92059238Y-131770381D01*
X92059238Y-130770381D01*
X92535429Y-130770381D01*
X93297334Y-131246571D02*
X92964000Y-131246571D01*
X92964000Y-131770381D02*
X92964000Y-130770381D01*
X93440191Y-130770381D01*
X93964000Y-130770381D02*
X93964000Y-131008476D01*
X93725905Y-130913238D02*
X93964000Y-131008476D01*
X94202096Y-130913238D01*
X93821143Y-131198952D02*
X93964000Y-131008476D01*
X94106858Y-131198952D01*
X94725905Y-130770381D02*
X94725905Y-131008476D01*
X94487810Y-130913238D02*
X94725905Y-131008476D01*
X94964001Y-130913238D01*
X94583048Y-131198952D02*
X94725905Y-131008476D01*
X94868763Y-131198952D01*
X42735667Y-98496381D02*
X42402333Y-98020190D01*
X42164238Y-98496381D02*
X42164238Y-97496381D01*
X42545191Y-97496381D01*
X42640429Y-97544000D01*
X42688048Y-97591619D01*
X42735667Y-97686857D01*
X42735667Y-97829714D01*
X42688048Y-97924952D01*
X42640429Y-97972571D01*
X42545191Y-98020190D01*
X42164238Y-98020190D01*
X43164238Y-97972571D02*
X43497572Y-97972571D01*
X43640429Y-98496381D02*
X43164238Y-98496381D01*
X43164238Y-97496381D01*
X43640429Y-97496381D01*
X44402334Y-97972571D02*
X44069000Y-97972571D01*
X44069000Y-98496381D02*
X44069000Y-97496381D01*
X44545191Y-97496381D01*
X45069000Y-97496381D02*
X45069000Y-97734476D01*
X44830905Y-97639238D02*
X45069000Y-97734476D01*
X45307096Y-97639238D01*
X44926143Y-97924952D02*
X45069000Y-97734476D01*
X45211858Y-97924952D01*
X45830905Y-97496381D02*
X45830905Y-97734476D01*
X45592810Y-97639238D02*
X45830905Y-97734476D01*
X46069001Y-97639238D01*
X45688048Y-97924952D02*
X45830905Y-97734476D01*
X45973763Y-97924952D01*
M02*
