G04 #@! TF.FileFunction,Soldermask,Top*
%FSLAX46Y46*%
G04 Gerber Fmt 4.6, Leading zero omitted, Abs format (unit mm)*
G04 Created by KiCad (PCBNEW 4.0.7) date Fri Jul 20 16:51:51 2018*
%MOMM*%
%LPD*%
G01*
G04 APERTURE LIST*
%ADD10C,0.100000*%
%ADD11C,0.300000*%
%ADD12C,80.400000*%
%ADD13C,3.900120*%
G04 APERTURE END LIST*
D10*
D11*
X118719508Y-37459136D02*
X118576877Y-37387255D01*
X118505675Y-37315600D01*
X118434698Y-37172518D01*
X118434924Y-37101090D01*
X118506805Y-36958460D01*
X118578459Y-36887257D01*
X118721542Y-36816281D01*
X119007255Y-36817185D01*
X119149885Y-36889066D01*
X119221088Y-36960720D01*
X119292063Y-37103803D01*
X119291837Y-37175230D01*
X119219957Y-37317861D01*
X119148303Y-37389063D01*
X119005220Y-37460040D01*
X118719508Y-37459136D01*
X118576424Y-37530111D01*
X118504771Y-37601314D01*
X118432890Y-37743944D01*
X118431986Y-38029657D01*
X118502962Y-38172739D01*
X118574164Y-38244394D01*
X118716795Y-38316273D01*
X119002508Y-38317178D01*
X119145590Y-38246202D01*
X119217245Y-38174999D01*
X119289125Y-38032369D01*
X119290029Y-37746657D01*
X119219053Y-37603574D01*
X119147851Y-37531920D01*
X119005220Y-37460040D01*
X120221534Y-36821028D02*
X120364390Y-36821480D01*
X120507020Y-36893361D01*
X120578223Y-36965015D01*
X120649199Y-37108098D01*
X120719723Y-37394036D01*
X120718593Y-37751177D01*
X120646261Y-38036664D01*
X120574380Y-38179294D01*
X120502725Y-38250497D01*
X120359643Y-38321472D01*
X120216787Y-38321020D01*
X120074157Y-38249140D01*
X120002954Y-38177486D01*
X119931978Y-38034403D01*
X119861454Y-37748465D01*
X119862584Y-37391324D01*
X119934917Y-37105837D01*
X120006797Y-36963207D01*
X120078451Y-36892004D01*
X120221534Y-36821028D01*
X121360090Y-38181781D02*
X121431292Y-38253435D01*
X121359638Y-38324637D01*
X121288435Y-38252983D01*
X121360090Y-38181781D01*
X121359638Y-38324637D01*
X122006787Y-36969536D02*
X122078441Y-36898333D01*
X122221524Y-36827357D01*
X122578665Y-36828487D01*
X122721295Y-36900368D01*
X122792498Y-36972022D01*
X122863473Y-37115105D01*
X122863021Y-37257961D01*
X122790915Y-37472020D01*
X121931064Y-38326445D01*
X122859631Y-38329384D01*
X124150085Y-36833460D02*
X123864372Y-36832556D01*
X123721290Y-36903532D01*
X123649635Y-36974735D01*
X123506101Y-37188567D01*
X123433768Y-37474054D01*
X123431960Y-38045479D01*
X123502936Y-38188562D01*
X123574138Y-38260216D01*
X123716769Y-38332096D01*
X124002482Y-38333000D01*
X124145564Y-38262025D01*
X124217219Y-38190822D01*
X124289099Y-38048192D01*
X124290229Y-37691051D01*
X124219253Y-37547968D01*
X124148051Y-37476315D01*
X124005420Y-37404434D01*
X123719708Y-37403530D01*
X123576624Y-37474506D01*
X123504971Y-37545708D01*
X123433090Y-37688338D01*
X125577067Y-37337978D02*
X125573902Y-38337973D01*
X125221734Y-36765423D02*
X124861202Y-37835715D01*
X125789769Y-37838654D01*
X127502463Y-38344076D02*
X127505628Y-37344081D01*
X127505176Y-37486938D02*
X127576829Y-37415736D01*
X127719913Y-37344759D01*
X127934197Y-37345437D01*
X128076827Y-37417318D01*
X128147804Y-37560400D01*
X128145317Y-38346110D01*
X128147804Y-37560400D02*
X128219684Y-37417770D01*
X128362767Y-37346794D01*
X128577051Y-37347472D01*
X128719682Y-37419352D01*
X128790657Y-37562435D01*
X128788171Y-38348145D01*
X129502453Y-38350405D02*
X129505618Y-37350410D01*
X129505166Y-37493268D02*
X129576819Y-37422065D01*
X129719903Y-37351088D01*
X129934187Y-37351766D01*
X130076817Y-37423647D01*
X130147794Y-37566730D01*
X130145307Y-38352440D01*
X130147794Y-37566730D02*
X130219674Y-37424099D01*
X130362757Y-37353123D01*
X130577040Y-37353801D01*
X130719672Y-37425682D01*
X130790647Y-37568764D01*
X130788161Y-38354474D01*
X84511211Y-38879460D02*
X164775211Y-39133460D01*
X84328000Y-96774000D02*
X84519755Y-36179474D01*
X164592000Y-97028000D02*
X164783755Y-36433474D01*
X164775211Y-39133460D02*
X163646857Y-39716313D01*
X164775211Y-39133460D02*
X163650569Y-38543477D01*
X84511211Y-38879460D02*
X85635853Y-39469443D01*
X84511211Y-38879460D02*
X85639565Y-38296607D01*
D12*
X124460000Y-96520000D03*
D13*
X110236000Y-95250000D03*
M02*
