G04 #@! TF.GenerationSoftware,KiCad,Pcbnew,5.0.0*
G04 #@! TF.CreationDate,2018-07-26T21:26:35-05:00*
G04 #@! TF.ProjectId,AntennaPcb,416E74656E6E615063622E6B69636164,rev?*
G04 #@! TF.SameCoordinates,Original*
G04 #@! TF.FileFunction,Legend,Top*
G04 #@! TF.FilePolarity,Positive*
%FSLAX46Y46*%
G04 Gerber Fmt 4.6, Leading zero omitted, Abs format (unit mm)*
G04 Created by KiCad (PCBNEW 5.0.0) date Thu Jul 26 21:26:35 2018*
%MOMM*%
%LPD*%
G01*
G04 APERTURE LIST*
%ADD10C,0.150000*%
%ADD11C,0.100000*%
G04 APERTURE END LIST*
D10*
X132462008Y-96520000D02*
G75*
G03X132462008Y-96520000I-8002008J0D01*
G01*
D11*
X154600042Y-96911970D02*
G75*
G03X154600042Y-96911970I-30000000J0D01*
G01*
G04 #@! TO.C,REF\002A\002A*
X-6350000Y133350000D02*
G75*
G03X-6350000Y133350000I0J0D01*
G01*
D10*
X114206600Y-96678600D02*
X114206600Y-94278600D01*
X118406600Y-96678600D02*
X114206600Y-96678600D01*
X118406600Y-94278600D02*
X118406600Y-96678600D01*
X114206600Y-94278600D02*
X118406600Y-94278600D01*
X91630666Y-131770380D02*
X91297333Y-131294190D01*
X91059238Y-131770380D02*
X91059238Y-130770380D01*
X91440190Y-130770380D01*
X91535428Y-130818000D01*
X91583047Y-130865619D01*
X91630666Y-130960857D01*
X91630666Y-131103714D01*
X91583047Y-131198952D01*
X91535428Y-131246571D01*
X91440190Y-131294190D01*
X91059238Y-131294190D01*
X92059238Y-131246571D02*
X92392571Y-131246571D01*
X92535428Y-131770380D02*
X92059238Y-131770380D01*
X92059238Y-130770380D01*
X92535428Y-130770380D01*
X93297333Y-131246571D02*
X92964000Y-131246571D01*
X92964000Y-131770380D02*
X92964000Y-130770380D01*
X93440190Y-130770380D01*
X93964000Y-130770380D02*
X93964000Y-131008476D01*
X93725904Y-130913238D02*
X93964000Y-131008476D01*
X94202095Y-130913238D01*
X93821142Y-131198952D02*
X93964000Y-131008476D01*
X94106857Y-131198952D01*
X94725904Y-130770380D02*
X94725904Y-131008476D01*
X94487809Y-130913238D02*
X94725904Y-131008476D01*
X94964000Y-130913238D01*
X94583047Y-131198952D02*
X94725904Y-131008476D01*
X94868761Y-131198952D01*
X42735666Y-98496380D02*
X42402333Y-98020190D01*
X42164238Y-98496380D02*
X42164238Y-97496380D01*
X42545190Y-97496380D01*
X42640428Y-97544000D01*
X42688047Y-97591619D01*
X42735666Y-97686857D01*
X42735666Y-97829714D01*
X42688047Y-97924952D01*
X42640428Y-97972571D01*
X42545190Y-98020190D01*
X42164238Y-98020190D01*
X43164238Y-97972571D02*
X43497571Y-97972571D01*
X43640428Y-98496380D02*
X43164238Y-98496380D01*
X43164238Y-97496380D01*
X43640428Y-97496380D01*
X44402333Y-97972571D02*
X44069000Y-97972571D01*
X44069000Y-98496380D02*
X44069000Y-97496380D01*
X44545190Y-97496380D01*
X45069000Y-97496380D02*
X45069000Y-97734476D01*
X44830904Y-97639238D02*
X45069000Y-97734476D01*
X45307095Y-97639238D01*
X44926142Y-97924952D02*
X45069000Y-97734476D01*
X45211857Y-97924952D01*
X45830904Y-97496380D02*
X45830904Y-97734476D01*
X45592809Y-97639238D02*
X45830904Y-97734476D01*
X46069000Y-97639238D01*
X45688047Y-97924952D02*
X45830904Y-97734476D01*
X45973761Y-97924952D01*
X42710266Y-95905580D02*
X42376933Y-95429390D01*
X42138838Y-95905580D02*
X42138838Y-94905580D01*
X42519790Y-94905580D01*
X42615028Y-94953200D01*
X42662647Y-95000819D01*
X42710266Y-95096057D01*
X42710266Y-95238914D01*
X42662647Y-95334152D01*
X42615028Y-95381771D01*
X42519790Y-95429390D01*
X42138838Y-95429390D01*
X43138838Y-95381771D02*
X43472171Y-95381771D01*
X43615028Y-95905580D02*
X43138838Y-95905580D01*
X43138838Y-94905580D01*
X43615028Y-94905580D01*
X44376933Y-95381771D02*
X44043600Y-95381771D01*
X44043600Y-95905580D02*
X44043600Y-94905580D01*
X44519790Y-94905580D01*
X45043600Y-94905580D02*
X45043600Y-95143676D01*
X44805504Y-95048438D02*
X45043600Y-95143676D01*
X45281695Y-95048438D01*
X44900742Y-95334152D02*
X45043600Y-95143676D01*
X45186457Y-95334152D01*
X45805504Y-94905580D02*
X45805504Y-95143676D01*
X45567409Y-95048438D02*
X45805504Y-95143676D01*
X46043600Y-95048438D01*
X45662647Y-95334152D02*
X45805504Y-95143676D01*
X45948361Y-95334152D01*
G04 #@! TD*
M02*
