G04 #@! TF.FileFunction,Copper,L2,Bot,Signal*
%FSLAX46Y46*%
G04 Gerber Fmt 4.6, Leading zero omitted, Abs format (unit mm)*
G04 Created by KiCad (PCBNEW 4.0.7) date Fri Jul 20 16:51:51 2018*
%MOMM*%
%LPD*%
G01*
G04 APERTURE LIST*
%ADD10C,0.100000*%
%ADD11C,3.500120*%
%ADD12C,0.254000*%
G04 APERTURE END LIST*
D10*
D11*
X110236000Y-95250000D03*
D12*
G36*
X168916520Y-141228524D02*
X80283478Y-141228524D01*
X80283478Y-94806576D01*
X107844985Y-94806576D01*
X107850927Y-95264362D01*
X107850527Y-95722336D01*
X107857076Y-95738187D01*
X107857299Y-95755332D01*
X108196681Y-96574672D01*
X108204485Y-96578980D01*
X108212866Y-96599263D01*
X108883208Y-97270776D01*
X108906411Y-97280411D01*
X108911328Y-97289319D01*
X109336551Y-97459020D01*
X109759501Y-97634645D01*
X109776652Y-97634660D01*
X109792576Y-97641015D01*
X110250362Y-97635073D01*
X110708336Y-97635473D01*
X110724187Y-97628924D01*
X110741332Y-97628701D01*
X111560672Y-97289319D01*
X111564980Y-97281515D01*
X111585263Y-97273134D01*
X112256776Y-96602792D01*
X112266411Y-96579589D01*
X112275319Y-96574672D01*
X112445020Y-96149449D01*
X112620645Y-95726499D01*
X112620660Y-95709348D01*
X112627015Y-95693424D01*
X112621073Y-95235638D01*
X112621473Y-94777664D01*
X112614924Y-94761813D01*
X112614701Y-94744668D01*
X112275319Y-93925328D01*
X112267515Y-93921020D01*
X112259134Y-93900737D01*
X111588792Y-93229224D01*
X111565589Y-93219589D01*
X111560672Y-93210681D01*
X111135449Y-93040980D01*
X110712499Y-92865355D01*
X110695348Y-92865340D01*
X110679424Y-92858985D01*
X110221638Y-92864927D01*
X109763664Y-92864527D01*
X109747813Y-92871076D01*
X109730668Y-92871299D01*
X108911328Y-93210681D01*
X108907020Y-93218485D01*
X108886737Y-93226866D01*
X108215224Y-93897208D01*
X108205589Y-93920411D01*
X108196681Y-93925328D01*
X108026980Y-94350551D01*
X107851355Y-94773501D01*
X107851340Y-94790652D01*
X107844985Y-94806576D01*
X80283478Y-94806576D01*
X80283478Y-52595482D01*
X168916520Y-52595482D01*
X168916520Y-141228524D01*
X168916520Y-141228524D01*
G37*
X168916520Y-141228524D02*
X80283478Y-141228524D01*
X80283478Y-94806576D01*
X107844985Y-94806576D01*
X107850927Y-95264362D01*
X107850527Y-95722336D01*
X107857076Y-95738187D01*
X107857299Y-95755332D01*
X108196681Y-96574672D01*
X108204485Y-96578980D01*
X108212866Y-96599263D01*
X108883208Y-97270776D01*
X108906411Y-97280411D01*
X108911328Y-97289319D01*
X109336551Y-97459020D01*
X109759501Y-97634645D01*
X109776652Y-97634660D01*
X109792576Y-97641015D01*
X110250362Y-97635073D01*
X110708336Y-97635473D01*
X110724187Y-97628924D01*
X110741332Y-97628701D01*
X111560672Y-97289319D01*
X111564980Y-97281515D01*
X111585263Y-97273134D01*
X112256776Y-96602792D01*
X112266411Y-96579589D01*
X112275319Y-96574672D01*
X112445020Y-96149449D01*
X112620645Y-95726499D01*
X112620660Y-95709348D01*
X112627015Y-95693424D01*
X112621073Y-95235638D01*
X112621473Y-94777664D01*
X112614924Y-94761813D01*
X112614701Y-94744668D01*
X112275319Y-93925328D01*
X112267515Y-93921020D01*
X112259134Y-93900737D01*
X111588792Y-93229224D01*
X111565589Y-93219589D01*
X111560672Y-93210681D01*
X111135449Y-93040980D01*
X110712499Y-92865355D01*
X110695348Y-92865340D01*
X110679424Y-92858985D01*
X110221638Y-92864927D01*
X109763664Y-92864527D01*
X109747813Y-92871076D01*
X109730668Y-92871299D01*
X108911328Y-93210681D01*
X108907020Y-93218485D01*
X108886737Y-93226866D01*
X108215224Y-93897208D01*
X108205589Y-93920411D01*
X108196681Y-93925328D01*
X108026980Y-94350551D01*
X107851355Y-94773501D01*
X107851340Y-94790652D01*
X107844985Y-94806576D01*
X80283478Y-94806576D01*
X80283478Y-52595482D01*
X168916520Y-52595482D01*
X168916520Y-141228524D01*
M02*
